<?xml version="1.0" encoding="UTF-8"?>
<svg id="Layer_1" data-name="Layer 1" xmlns="http://www.w3.org/2000/svg" viewBox="0 0 541.55 229.93">
  <defs>
    <style>
      .cls-1 {
        font-size: 168.47px;
      }

      .cls-1, .cls-2, .cls-3 {
        font-family: Georgia-Bold, Georgia;
        font-weight: 700;
      }

      .cls-1, .cls-2, .cls-3, .cls-4 {
        fill: #333;
      }

      .cls-1, .cls-2, .cls-3, .cls-5 {
        isolation: isolate;
      }

      .cls-6 {
        fill: rgba(192, 231, 250, .95);
      }

      .cls-2 {
        font-size: 200px;
      }

      .cls-3 {
        font-size: 141.42px;
      }

      .cls-5 {
        fill: rgba(156, 219, 248, .85);
        opacity: .9;
      }

      .cls-7 {
        fill: rgba(255, 255, 255, .6);
      }
    </style>
  </defs>
  <text class="cls-1" transform="translate(0 168.89)"><tspan x="0" y="0">x</tspan></text>
  <text class="cls-2" transform="translate(103.31 169.29)"><tspan x="0" y="0">M</tspan></text>
  <circle class="cls-6" cx="508.31" cy="31.29" r="24"/>
  <ellipse class="cls-7" cx="498.02" cy="22.72" rx="5.14" ry="3.43"/>
  <path class="cls-5" d="M361.81,141.77c.3.68.61,1.35.94,2,2.4,4.72,5.45,8.4,9.14,11.03,3.69,2.63,8.23,3.94,13.63,3.94s9.83-1.33,13.63-3.98c3.79-2.65,6.81-6.29,9.06-10.91,2.4-4.83,4.14-10.3,5.21-16.4.14-.81.27-1.64.4-2.48-18.25-4.19-35.59,1.41-52,16.8Z"/>
  <path class="cls-5" d="M451.48,141.84c-.33-.24-.66-.45-1-.69-2.8,5.22-6.21,9.92-10.25,14.08-6.49,6.62-14.12,11.77-22.88,15.46-8.76,3.69-19.19,5.53-31.29,5.53-9.77,0-19-1.61-27.7-4.82-.03-.01-.05-.02-.08-.03v17.1h143.39v-41.15c-9.56,14.63-26.29,12.8-50.19-5.49Z"/>
  <path class="cls-4" d="M436.37,49.84c6.62,6.05,11.87,13.36,15.74,21.93,3.88,8.57,5.81,18.34,5.81,29.31,0,9.77-1.64,19.07-4.92,27.89-3.28,8.83-8,16.42-14.18,22.79-6.49,6.62-14.12,11.77-22.88,15.46-8.76,3.69-19.19,5.53-31.29,5.53-9.77,0-19-1.61-27.7-4.82-8.7-3.21-16.36-7.88-22.97-13.99-6.56-5.99-11.76-13.27-15.6-21.84-3.85-8.57-5.77-18.12-5.77-28.65s1.87-20.91,5.62-29.83c3.75-8.92,8.9-16.56,15.46-22.93,6.49-6.24,14.2-11.04,23.12-14.42,8.92-3.37,18.42-5.06,28.5-5.06s19.43,1.64,28.22,4.92c8.79,3.28,16.4,7.85,22.83,13.71ZM412.07,145.87c2.84-5.74,4.88-12.25,6.15-19.51,1.26-7.26,1.89-15.47,1.89-24.62,0-7.76-.55-15.32-1.65-22.68-1.1-7.35-2.98-13.9-5.63-19.65-2.71-5.74-6.3-10.35-10.78-13.82-4.48-3.47-10.05-5.21-16.73-5.21-11.41,0-20.08,5.42-26,16.24-5.92,10.83-8.89,26.12-8.89,45.88,0,8.4.65,16.32,1.94,23.77,1.29,7.45,3.32,13.95,6.1,19.51,2.84,5.62,6.43,9.99,10.78,13.11,4.35,3.13,9.71,4.69,16.07,4.69s11.6-1.58,16.07-4.74c4.47-3.16,8.04-7.48,10.68-12.97Z"/>
  <text class="cls-3" transform="translate(478.51 168.99)"><tspan x="0" y="0">I</tspan></text>
</svg>